<svg width="40" height="40" viewBox="0 0 40 40" fill="none" xmlns="http://www.w3.org/2000/svg" xmlns:xlink="http://www.w3.org/1999/xlink">
<path d="M1,20L-1,20L1,20ZM19,38L19,36L19,38ZM37,20L35,20L37,20ZM19,2L19,4L19,2ZM-1,20C-1,22.626 -0.483,25.227 0.522,27.654L4.218,26.123C3.414,24.182 3,22.101 3,20L-1,20ZM0.522,27.654C1.528,30.08 3.001,32.285 4.858,34.142L7.686,31.314C6.201,29.828 5.022,28.064 4.218,26.123L0.522,27.654ZM4.858,34.142C6.715,35.999 8.92,37.472 11.346,38.478L12.877,34.782C10.936,33.978 9.172,32.799 7.686,31.314L4.858,34.142ZM11.346,38.478C13.773,39.483 16.374,40 19,40L19,36C16.899,36 14.818,35.586 12.877,34.782L11.346,38.478ZM19,40C21.626,40 24.227,39.483 26.654,38.478L25.123,34.782C23.182,35.586 21.101,36 19,36L19,40ZM26.654,38.478C29.08,37.472 31.285,35.999 33.142,34.142L30.314,31.314C28.828,32.799 27.064,33.978 25.123,34.782L26.654,38.478ZM33.142,34.142C34.999,32.285 36.472,30.08 37.478,27.654L33.782,26.123C32.978,28.064 31.799,29.828 30.314,31.314L33.142,34.142ZM37.478,27.654C38.483,25.227 39,22.626 39,20L35,20C35,22.101 34.586,24.182 33.782,26.123L37.478,27.654ZM39,20C39,14.696 36.893,9.609 33.142,5.858L30.314,8.686C33.314,11.687 35,15.757 35,20L39,20ZM33.142,5.858C29.391,2.107 24.304,0 19,0L19,4C23.243,4 27.313,5.686 30.314,8.686L33.142,5.858ZM19,0C13.696,0 8.609,2.107 4.858,5.858L7.686,8.686C10.687,5.686 14.757,4 19,4L19,0ZM4.858,5.858C1.107,9.609 -1,14.696 -1,20L3,20C3,15.757 4.686,11.687 7.686,8.686L4.858,5.858Z" fill="#000000"/>
<path d="M16,17L15.172,15.179C14.732,15.379 14.379,15.732 14.179,16.172L16,17ZM27,12L28.821,12.828C29.166,12.069 29.004,11.175 28.414,10.586C27.825,9.996 26.931,9.834 26.172,10.179L27,12ZM22,23L22.828,24.821C23.268,24.621 23.621,24.268 23.821,23.828L22,23ZM11,28L9.179,27.172C8.834,27.931 8.996,28.825 9.586,29.414C10.175,30.004 11.069,30.166 11.828,29.821L11,28ZM16.828,18.821L27.828,13.821L26.172,10.179L15.172,15.179L16.828,18.821ZM25.179,11.172L20.179,22.172L23.821,23.828L28.821,12.828L25.179,11.172ZM21.172,21.179L10.172,26.179L11.828,29.821L22.828,24.821L21.172,21.179ZM12.821,28.828L17.821,17.828L14.179,16.172L9.179,27.172L12.821,28.828Z" fill="#000000"/>
</svg>
