<svg width="28" height="34" viewBox="0 0 28 34" fill="none" xmlns="http://www.w3.org/2000/svg" xmlns:xlink="http://www.w3.org/1999/xlink">
<path d="M23,32C23,33.105 23.895,34 25,34C26.105,34 27,33.105 27,32L23,32ZM-1,32C-1,33.105 -0.105,34 1,34C2.105,34 3,33.105 3,32L-1,32ZM13,18L13,20L13,18ZM5,10L3,10L5,10ZM13,2L13,0L13,2ZM21,10L23,10L21,10ZM27,32C27,28.913 25.124,26.364 22.595,24.678C20.052,22.983 16.654,22 13,22L13,26C15.974,26 18.576,26.807 20.376,28.007C22.19,29.216 23,30.667 23,32L27,32ZM13,22C9.346,22 5.948,22.983 3.405,24.678C0.876,26.364 -1,28.913 -1,32L3,32C3,30.667 3.81,29.216 5.624,28.007C7.424,26.807 10.026,26 13,26L13,22ZM13,16C11.409,16 9.883,15.368 8.757,14.243L5.929,17.071C7.804,18.946 10.348,20 13,20L13,16ZM8.757,14.243C7.632,13.117 7,11.591 7,10L3,10C3,12.652 4.054,15.196 5.929,17.071L8.757,14.243ZM7,10C7,8.409 7.632,6.883 8.757,5.757L5.929,2.929C4.054,4.804 3,7.348 3,10L7,10ZM8.757,5.757C9.883,4.632 11.409,4 13,4L13,0C10.348,0 7.804,1.054 5.929,2.929L8.757,5.757ZM13,4C14.591,4 16.117,4.632 17.243,5.757L20.071,2.929C18.196,1.054 15.652,0 13,0L13,4ZM17.243,5.757C18.368,6.883 19,8.409 19,10L23,10C23,7.348 21.946,4.804 20.071,2.929L17.243,5.757ZM19,10C19,11.591 18.368,13.117 17.243,14.243L20.071,17.071C21.946,15.196 23,12.652 23,10L19,10ZM17.243,14.243C16.117,15.368 14.591,16 13,16L13,20C15.652,20 18.196,18.946 20.071,17.071L17.243,14.243Z" fill="#000000"/>
</svg>
