<svg width="84" height="84" viewBox="0 0 84 84" fill="none" xmlns="http://www.w3.org/2000/svg" xmlns:xlink="http://www.w3.org/1999/xlink">
<path d="M75.458,42C75.458,23.625 60.375,8.542 42,8.542C23.625,8.542 8.542,23.625 8.542,42C8.542,60.375 23.625,75.458 42,75.458C60.375,75.458 75.458,60.375 75.458,42ZM83.667,42C83.667,65.083 65.083,83.667 42,83.667C18.917,83.667 0.333,65.083 0.333,42C0.333,18.917 18.917,0.333 42,0.333C65.083,0.333 83.667,18.917 83.667,42ZM48.417,46.167L48.417,58.667L64.917,42L48.417,25.333L48.417,37.833L19.083,37.833L19.083,46.167Z" fill="#000000"/>
</svg>
