<svg width="30" height="34" viewBox="0 0 30 34" fill="none" xmlns="http://www.w3.org/2000/svg" xmlns:xlink="http://www.w3.org/1999/xlink">
<path d="M25,32C25,33.105 25.895,34 27,34C28.105,34 29,33.105 29,32L25,32ZM1,32C1,33.105 1.895,34 3,34C4.105,34 5,33.105 5,32L1,32ZM15,18L15,20L15,18ZM7,10L5,10L7,10ZM15,2L15,0L15,2ZM23,10L25,10L23,10ZM29,32C29,28.913 27.124,26.364 24.595,24.678C22.052,22.983 18.654,22 15,22L15,26C17.974,26 20.576,26.807 22.376,28.007C24.19,29.216 25,30.667 25,32L29,32ZM15,22C11.346,22 7.948,22.983 5.405,24.678C2.876,26.364 1,28.913 1,32L5,32C5,30.667 5.81,29.216 7.624,28.007C9.424,26.807 12.026,26 15,26L15,22ZM15,16C13.409,16 11.883,15.368 10.757,14.243L7.929,17.071C9.804,18.946 12.348,20 15,20L15,16ZM10.757,14.243C9.632,13.117 9,11.591 9,10L5,10C5,12.652 6.054,15.196 7.929,17.071L10.757,14.243ZM9,10C9,8.409 9.632,6.883 10.757,5.757L7.929,2.929C6.054,4.804 5,7.348 5,10L9,10ZM10.757,5.757C11.883,4.632 13.409,4 15,4L15,0C12.348,0 9.804,1.054 7.929,2.929L10.757,5.757ZM15,4C16.591,4 18.117,4.632 19.243,5.757L22.071,2.929C20.196,1.054 17.652,0 15,0L15,4ZM19.243,5.757C20.368,6.883 21,8.409 21,10L25,10C25,7.348 23.946,4.804 22.071,2.929L19.243,5.757ZM21,10C21,11.591 20.368,13.117 19.243,14.243L22.071,17.071C23.946,15.196 25,12.652 25,10L21,10ZM19.243,14.243C18.117,15.368 16.591,16 15,16L15,20C17.652,20 20.196,18.946 22.071,17.071L19.243,14.243Z" fill="#000000"/>
</svg>
