<svg width="36" height="40" viewBox="0 0 36 40" fill="none" xmlns="http://www.w3.org/2000/svg" xmlns:xlink="http://www.w3.org/1999/xlink">
<path d="M18,38L18,40L18,38ZM32.64,29.896L33.276,31.792L33.281,31.79L32.64,29.896ZM33.894,28.64L32,27.997L31.999,28.002L33.894,28.64ZM33.972,26.504L31.998,26.825L32.001,26.845L33.972,26.504ZM33.626,25.664L35.253,24.501L35.252,24.499L33.626,25.664ZM33.172,25.172L34.586,23.758L34.586,23.758L33.172,25.172ZM32.392,24.392L30.977,25.806L30.978,25.806L32.392,24.392ZM32,23.444L34,23.445L34,23.444L32,23.444ZM32,16L30,16L30,16L32,16ZM18,2L18,0L18,2ZM4,16L6,16L6,16L4,16ZM4,23.444L2,23.444L2,23.445L4,23.444ZM3.608,24.392L5.022,25.806L5.023,25.806L3.608,24.392ZM2.828,25.172L4.242,26.586L4.242,26.586L2.828,25.172ZM2.376,25.662L3.999,26.83L4.005,26.822L2.376,25.662ZM2.026,26.504L0.053,26.178L0.052,26.183L2.026,26.504ZM2.104,28.64L0.207,29.272L0.209,29.28L2.104,28.64ZM3.362,29.896L2.725,31.792L2.726,31.792L3.362,29.896ZM22,30L22,32L26,32L26,30L22,30ZM22,32C22,33.061 21.579,34.078 20.828,34.828L23.657,37.657C25.157,36.157 26,34.122 26,32L22,32ZM20.828,34.828C20.078,35.579 19.061,36 18,36L18,40C20.122,40 22.157,39.157 23.657,37.657L20.828,34.828ZM18,36C16.939,36 15.922,35.579 15.172,34.828L12.343,37.657C13.843,39.157 15.878,40 18,40L18,36ZM15.172,34.828C14.421,34.078 14,33.061 14,32L10,32C10,34.122 10.843,36.157 12.343,37.657L15.172,34.828ZM14,32L14,30L10,30L10,32L14,32ZM24,28L12,28L12,32L24,32L24,28ZM24,32L31.18,32L31.18,28L24,28L24,32ZM31.18,32C31.786,32 32.579,32.026 33.276,31.792L32.004,28C32.089,27.971 32.116,27.982 31.968,27.99C31.807,27.999 31.585,28 31.18,28L31.18,32ZM33.281,31.79C33.865,31.593 34.394,31.264 34.829,30.828L31.999,28.002L31.999,28.002L33.281,31.79ZM34.829,30.828C35.264,30.392 35.593,29.862 35.789,29.278L31.999,28.002L31.999,28.002L34.829,30.828ZM35.788,29.283C36.027,28.58 36,27.782 36,27.172L32,27.172C32,27.581 31.999,27.803 31.99,27.964C31.982,28.11 31.971,28.083 32,27.997L35.788,29.283ZM36,27.172C36,26.902 36.007,26.533 35.943,26.163L32.001,26.845C31.994,26.805 31.996,26.789 31.998,26.839C31.999,26.866 31.999,26.904 32,26.961C32,27.019 32,27.086 32,27.172L36,27.172ZM35.946,26.183C35.848,25.577 35.61,25.001 35.253,24.501L31.999,26.827L31.998,26.825L35.946,26.183ZM35.252,24.499C35.038,24.201 34.779,23.95 34.586,23.758L31.758,26.586C31.885,26.714 31.949,26.777 31.993,26.825C32.03,26.864 32.021,26.857 32,26.829L35.252,24.499ZM34.586,23.758L33.806,22.978L30.978,25.806L31.758,26.586L34.586,23.758ZM33.807,22.978C33.868,23.04 33.917,23.113 33.95,23.193L30.253,24.721C30.421,25.127 30.667,25.495 30.977,25.806L33.807,22.978ZM33.95,23.193C33.983,23.273 34,23.359 34,23.445L30,23.443C30,23.881 30.086,24.316 30.253,24.721L33.95,23.193ZM34,23.444L34,16L30,16L30,23.444L34,23.444ZM34,16C34,13.899 33.586,11.818 32.782,9.877L29.087,11.408C29.69,12.864 30,14.424 30,16L34,16ZM32.782,9.877C31.978,7.936 30.799,6.172 29.314,4.686L26.485,7.515C27.6,8.629 28.483,9.952 29.087,11.408L32.782,9.877ZM29.314,4.686C27.828,3.201 26.064,2.022 24.123,1.218L22.592,4.913C24.048,5.516 25.371,6.4 26.485,7.515L29.314,4.686ZM24.123,1.218C22.182,0.414 20.101,0 18,0L18,4C19.576,4 21.136,4.31 22.592,4.913L24.123,1.218ZM18,0C15.899,0 13.818,0.414 11.877,1.218L13.408,4.913C14.864,4.31 16.424,4 18,4L18,0ZM11.877,1.218C9.936,2.022 8.172,3.201 6.686,4.686L9.515,7.515C10.629,6.4 11.952,5.516 13.408,4.913L11.877,1.218ZM6.686,4.686C5.201,6.172 4.022,7.936 3.218,9.877L6.913,11.408C7.517,9.952 8.4,8.629 9.515,7.515L6.686,4.686ZM3.218,9.877C2.414,11.818 2,13.899 2,16L6,16C6,14.424 6.31,12.864 6.913,11.408L3.218,9.877ZM2,16L2,23.444L6,23.444L6,16L2,16ZM2,23.445C2,23.359 2.017,23.273 2.05,23.193L5.747,24.721C5.914,24.316 6,23.881 6,23.443L2,23.445ZM2.05,23.193C2.083,23.113 2.132,23.04 2.193,22.978L5.023,25.806C5.333,25.495 5.579,25.127 5.747,24.721L2.05,23.193ZM2.194,22.978L1.414,23.758L4.242,26.586L5.022,25.806L2.194,22.978ZM1.414,23.758C1.221,23.95 0.96,24.202 0.747,24.502L4.005,26.822C3.982,26.854 3.971,26.863 4.006,26.825C4.05,26.778 4.113,26.715 4.242,26.586L1.414,23.758ZM0.753,24.494C0.393,24.993 0.153,25.57 0.053,26.178L3.999,26.83L3.999,26.83L0.753,24.494ZM0.052,26.183C-0.006,26.54 0,26.9 0,27.172L4,27.172C4,26.991 4,26.9 4.002,26.833C4.004,26.778 4.006,26.789 4,26.825L0.052,26.183ZM0,27.172C0,27.785 -0.026,28.575 0.207,29.272L4.001,28.008C4.029,28.09 4.018,28.114 4.01,27.966C4.001,27.804 4,27.58 4,27.172L0,27.172ZM0.209,29.28C0.406,29.864 0.736,30.395 1.173,30.831L3.999,28L3.999,28L0.209,29.28ZM1.173,30.831C1.609,31.267 2.14,31.595 2.725,31.792L3.999,28L3.999,28L1.173,30.831ZM2.726,31.792C3.423,32.026 4.214,32 4.82,32L4.82,28C4.414,28 4.193,27.999 4.033,27.99C3.887,27.982 3.913,27.971 3.998,28L2.726,31.792ZM4.82,32L12,32L12,28L4.82,28L4.82,32Z" fill="#F8E9D6"/>
</svg>
