<svg width="38" height="36" viewBox="0 0 38 36" fill="none" xmlns="http://www.w3.org/2000/svg" xmlns:xlink="http://www.w3.org/1999/xlink">
<path d="M34.87,14.804L36.805,14.299L36.805,14.298L34.87,14.804ZM34.31,13.57L35.965,12.447L35.963,12.445L34.31,13.57ZM32.814,12.088L31.497,13.593L31.5,13.596L32.814,12.088ZM23.214,3.688L21.897,5.193L21.897,5.193L23.214,3.688ZM20.134,1.48L19.564,3.397L19.568,3.398L20.134,1.48ZM17.864,1.48L18.43,3.398L18.433,3.398L17.864,1.48ZM14.788,3.684L13.472,2.178L13.471,2.179L14.788,3.684ZM5.186,12.088L3.869,10.583L3.868,10.583L5.186,12.088ZM3.692,13.568L5.346,14.693L5.346,14.692L3.692,13.568ZM3.13,14.804L5.065,15.311L5.065,15.311L3.13,14.804ZM3.304,31.53L5.152,30.766L5.152,30.765L3.304,31.53ZM5.468,33.696L4.702,35.543L4.704,35.545L5.468,33.696ZM12.532,33.696L13.296,35.545L13.298,35.543L12.532,33.696ZM14.696,31.53L12.848,30.765L12.848,30.766L14.696,31.53ZM19,22L19,24L19,22ZM23,26L21,26L23,26ZM23.304,31.53L25.152,30.766L25.152,30.765L23.304,31.53ZM25.468,33.696L24.702,35.543L24.704,35.545L25.468,33.696ZM32.532,33.696L33.296,35.545L33.298,35.543L32.532,33.696ZM34.696,31.53L32.848,30.765L32.848,30.766L34.696,31.53ZM37,28L37,16.904L33,16.904L33,28L37,28ZM37,16.904C37,15.94 37.015,15.103 36.805,14.299L32.935,15.309C32.985,15.501 33,15.732 33,16.904L37,16.904ZM36.805,14.298C36.632,13.638 36.348,13.012 35.965,12.447L32.655,14.693C32.783,14.881 32.878,15.09 32.935,15.31L36.805,14.298ZM35.963,12.445C35.496,11.758 34.865,11.222 34.128,10.58L31.5,13.596C32.375,14.358 32.544,14.53 32.657,14.695L35.963,12.445ZM34.131,10.583L24.531,2.183L21.897,5.193L31.497,13.593L34.131,10.583ZM24.531,2.183C23.808,1.55 23.182,1 22.627,0.585C22.053,0.156 21.438,-0.22 20.7,-0.438L19.568,3.398C19.67,3.428 19.849,3.503 20.232,3.789C20.634,4.09 21.128,4.52 21.897,5.193L24.531,2.183ZM20.704,-0.437C19.592,-0.768 18.408,-0.767 17.295,-0.437L18.433,3.398C18.804,3.287 19.196,3.288 19.564,3.397L20.704,-0.437ZM17.298,-0.438C16.56,-0.22 15.946,0.155 15.373,0.584C14.82,0.998 14.194,1.547 13.472,2.178L16.104,5.19C16.874,4.517 17.366,4.088 17.768,3.788C18.15,3.503 18.328,3.428 18.43,3.398L17.298,-0.438ZM13.471,2.179L3.869,10.583L6.503,13.593L16.105,5.189L13.471,2.179ZM3.868,10.583C3.143,11.218 2.503,11.759 2.038,12.444L5.346,14.692C5.457,14.529 5.621,14.366 6.504,13.593L3.868,10.583ZM2.038,12.443C1.654,13.009 1.369,13.636 1.195,14.297L5.065,15.311C5.122,15.09 5.218,14.881 5.346,14.693L2.038,12.443ZM1.195,14.297C0.985,15.101 1,15.942 1,16.904L5,16.904C5,15.73 5.015,15.499 5.065,15.311L1.195,14.297ZM1,16.904L1,28L5,28L5,16.904L1,16.904ZM1,28C1,28.905 0.999,29.683 1.043,30.325C1.088,30.984 1.186,31.644 1.456,32.295L5.152,30.765C5.118,30.682 5.064,30.509 5.033,30.053C5.001,29.579 5,28.959 5,28L1,28ZM1.456,32.294C1.757,33.023 2.199,33.684 2.756,34.242L5.585,31.415C5.4,31.229 5.253,31.008 5.152,30.766L1.456,32.294ZM2.756,34.242C3.313,34.799 3.974,35.242 4.702,35.543L6.234,31.849C5.992,31.748 5.771,31.601 5.585,31.415L2.756,34.242ZM4.704,35.545C5.356,35.814 6.015,35.912 6.675,35.957C7.317,36.001 8.095,36 9,36L9,32C8.041,32 7.421,31.999 6.947,31.967C6.491,31.936 6.316,31.882 6.232,31.847L4.704,35.545ZM9,36C9.905,36 10.683,36.001 11.325,35.957C11.985,35.912 12.644,35.814 13.296,35.545L11.768,31.847C11.684,31.882 11.509,31.936 11.053,31.967C10.579,31.999 9.959,32 9,32L9,36ZM13.298,35.543C14.026,35.242 14.687,34.799 15.244,34.242L12.415,31.415C12.229,31.601 12.008,31.748 11.766,31.849L13.298,35.543ZM15.244,34.242C15.801,33.684 16.243,33.023 16.544,32.294L12.848,30.766C12.747,31.008 12.6,31.229 12.415,31.415L15.244,34.242ZM16.544,32.295C16.814,31.644 16.912,30.984 16.957,30.325C17.001,29.683 17,28.905 17,28L13,28C13,28.959 12.999,29.579 12.967,30.053C12.936,30.509 12.882,30.682 12.848,30.765L16.544,32.295ZM17,28L17,26L13,26L13,28L17,28ZM17,26C17,25.47 17.211,24.961 17.586,24.586L14.757,21.757C13.632,22.883 13,24.409 13,26L17,26ZM17.586,24.586C17.961,24.211 18.47,24 19,24L19,20C17.409,20 15.883,20.632 14.757,21.757L17.586,24.586ZM19,24C19.53,24 20.039,24.211 20.414,24.586L23.243,21.757C22.117,20.632 20.591,20 19,20L19,24ZM20.414,24.586C20.789,24.961 21,25.47 21,26L25,26C25,24.409 24.368,22.883 23.243,21.757L20.414,24.586ZM21,26L21,28L25,28L25,26L21,26ZM21,28C21,28.905 20.999,29.683 21.043,30.325C21.088,30.984 21.186,31.644 21.456,32.295L25.152,30.765C25.118,30.682 25.064,30.509 25.033,30.053C25.001,29.579 25,28.959 25,28L21,28ZM21.456,32.294C21.757,33.023 22.199,33.684 22.756,34.242L25.585,31.415C25.4,31.229 25.253,31.008 25.152,30.766L21.456,32.294ZM22.756,34.242C23.313,34.799 23.974,35.242 24.702,35.543L26.234,31.849C25.992,31.748 25.771,31.601 25.585,31.415L22.756,34.242ZM24.704,35.545C25.356,35.814 26.015,35.912 26.675,35.957C27.317,36.001 28.095,36 29,36L29,32C28.041,32 27.421,31.999 26.947,31.967C26.491,31.936 26.316,31.882 26.232,31.847L24.704,35.545ZM29,36C29.905,36 30.683,36.001 31.325,35.957C31.985,35.912 32.644,35.814 33.296,35.545L31.768,31.847C31.684,31.882 31.509,31.936 31.053,31.967C30.579,31.999 29.959,32 29,32L29,36ZM33.298,35.543C34.026,35.242 34.687,34.799 35.244,34.242L32.415,31.415C32.229,31.601 32.008,31.748 31.766,31.849L33.298,35.543ZM35.244,34.242C35.801,33.684 36.243,33.023 36.544,32.294L32.848,30.766C32.747,31.008 32.6,31.229 32.415,31.415L35.244,34.242ZM36.544,32.295C36.814,31.644 36.912,30.984 36.957,30.325C37.001,29.683 37,28.905 37,28L33,28C33,28.959 32.999,29.579 32.967,30.053C32.936,30.509 32.882,30.682 32.848,30.765L36.544,32.295Z" fill="#000000"/>
</svg>
